<svg width="122" height="28" viewBox="0 0 122 28" fill="none" xmlns="http://www.w3.org/2000/svg">
<g clip-path="url(#clip0_1_18)">
<path d="M47.4406 10.625L44.8312 22H43.4797H42.8703L40.7531 13.7734L38.5891 22H37.3078H36.6281L34.0187 10.625H36.0266L37.7687 19.1094L39.9016 10.625H41.1359H41.5969L43.7062 19.1328L45.425 10.625H47.4406ZM54.9447 20.0312C54.9447 20.8021 55.0515 21.4141 55.265 21.8672V22H53.2806C53.1973 21.8177 53.1244 21.5547 53.0619 21.2109C52.7962 21.4974 52.4785 21.7266 52.1087 21.8984C51.739 22.0703 51.3197 22.1562 50.8509 22.1562C50.2989 22.1562 49.8041 22.0469 49.3666 21.8281C48.9291 21.6094 48.5879 21.3073 48.3431 20.9219C48.0983 20.5365 47.9759 20.1042 47.9759 19.625C47.9759 18.724 48.3093 18.0339 48.9759 17.5547C49.6478 17.0755 50.5983 16.8359 51.8275 16.8359H52.9994V16.2891C52.9994 15.8411 52.877 15.4922 52.6322 15.2422C52.3874 14.987 52.0254 14.8594 51.5462 14.8594C51.2598 14.8594 51.0072 14.9089 50.7884 15.0078C50.5697 15.1068 50.4004 15.2422 50.2806 15.4141C50.1608 15.5859 50.1009 15.7786 50.1009 15.9922H48.1556C48.1556 15.5391 48.2989 15.1146 48.5853 14.7188C48.877 14.3177 49.2884 13.9974 49.8197 13.7578C50.3561 13.513 50.9681 13.3906 51.6556 13.3906C52.3015 13.3906 52.8718 13.5 53.3666 13.7188C53.8614 13.9375 54.2468 14.2656 54.5228 14.7031C54.8041 15.1406 54.9447 15.6745 54.9447 16.3047V20.0312ZM51.2259 20.6016C51.6322 20.6016 51.9916 20.5052 52.3041 20.3125C52.6218 20.1198 52.8535 19.888 52.9994 19.6172V18.0391H51.9837C51.3067 18.0391 50.7936 18.1615 50.4447 18.4062C50.0957 18.651 49.9212 18.9948 49.9212 19.4375C49.9212 19.7812 50.0358 20.0625 50.265 20.2812C50.4942 20.4948 50.8145 20.6016 51.2259 20.6016ZM60.0425 20.5469C60.2508 20.5469 60.4722 20.5208 60.7066 20.4688V21.9688C60.3316 22.0938 59.9097 22.1562 59.4409 22.1562C58.7534 22.1562 58.2118 21.9661 57.8159 21.5859C57.4201 21.2057 57.2222 20.599 57.2222 19.7656V14.9844H55.8472V13.5469H57.2222V11.4844H59.1675V13.5469H60.6519V14.9844H59.1675V19.6328C59.1675 19.987 59.2404 20.2292 59.3862 20.3594C59.5321 20.4844 59.7508 20.5469 60.0425 20.5469ZM68.8903 19.1875C68.8747 19.7292 68.7106 20.2266 68.3981 20.6797C68.0856 21.1328 67.669 21.4922 67.1481 21.7578C66.6273 22.0234 66.057 22.1562 65.4372 22.1562C64.5986 22.1562 63.8877 21.9688 63.3044 21.5938C62.7262 21.2188 62.294 20.7109 62.0075 20.0703C61.721 19.4245 61.5778 18.7031 61.5778 17.9062V17.6406C61.5778 16.8438 61.721 16.125 62.0075 15.4844C62.2992 14.8385 62.7341 14.3281 63.3122 13.9531C63.8903 13.5781 64.596 13.3906 65.4294 13.3906C66.1012 13.3906 66.695 13.526 67.2106 13.7969C67.7315 14.0625 68.1377 14.4375 68.4294 14.9219C68.721 15.4062 68.8747 15.9609 68.8903 16.5859H67.0544C67.0387 16.2839 66.9632 16.0104 66.8278 15.7656C66.6924 15.5156 66.5023 15.3177 66.2575 15.1719C66.0179 15.026 65.7341 14.9531 65.4059 14.9531C64.7132 14.9531 64.2262 15.2057 63.945 15.7109C63.6637 16.2161 63.5231 16.8594 63.5231 17.6406V17.9062C63.5231 19.6979 64.1533 20.5938 65.4137 20.5938C65.7106 20.5938 65.9815 20.5339 66.2262 20.4141C66.471 20.2943 66.6664 20.1276 66.8122 19.9141C66.958 19.7005 67.0387 19.4583 67.0544 19.1875H68.8903ZM74.3944 13.3906C76.2329 13.3906 77.1522 14.4505 77.1522 16.5703V22H75.2069V16.5547C75.2069 15.987 75.0845 15.5833 74.8397 15.3438C74.6001 15.099 74.2303 14.9766 73.7303 14.9766C73.3553 14.9766 73.0246 15.0625 72.7381 15.2344C72.4569 15.4062 72.2303 15.6458 72.0584 15.9531V22H70.1131V10H72.0584V14.4688C72.3501 14.125 72.6939 13.8594 73.0897 13.6719C73.4907 13.4844 73.9256 13.3906 74.3944 13.3906ZM92.0041 10.625L87.9259 22H86.4181H85.9494L81.8869 10.625H84.1056L86.9338 19.4766L89.7775 10.625H92.0041ZM94.0316 10.3125C94.3701 10.3125 94.6383 10.4115 94.8363 10.6094C95.0342 10.8021 95.1331 11.0495 95.1331 11.3516C95.1331 11.6484 95.0342 11.8932 94.8363 12.0859C94.6383 12.2786 94.3701 12.375 94.0316 12.375C93.693 12.375 93.4248 12.2812 93.2269 12.0938C93.029 11.901 92.93 11.6536 92.93 11.3516C92.93 11.0495 93.029 10.8021 93.2269 10.6094C93.4248 10.4115 93.693 10.3125 94.0316 10.3125ZM93.055 22V13.5469H95.0003V22H93.055ZM103.958 10V22H102.2L102.106 21.1172C101.543 21.8099 100.791 22.1562 99.8481 22.1562C99.1815 22.1562 98.5955 21.9714 98.0903 21.6016C97.5903 21.2318 97.2049 20.7214 96.9341 20.0703C96.6632 19.4193 96.5278 18.6849 96.5278 17.8672V17.7031C96.5278 16.849 96.6606 16.0964 96.9263 15.4453C97.1971 14.7943 97.5825 14.2891 98.0825 13.9297C98.5877 13.5703 99.1815 13.3906 99.8638 13.3906C100.749 13.3906 101.465 13.7005 102.012 14.3203V10H103.958ZM100.34 20.5625C101.111 20.5625 101.668 20.224 102.012 19.5469V15.9688C101.674 15.3073 101.122 14.9766 100.356 14.9766C99.7205 14.9766 99.2466 15.2292 98.9341 15.7344C98.6268 16.2396 98.4731 16.8958 98.4731 17.7031V17.8672C98.4731 18.6693 98.6242 19.3203 98.9263 19.8203C99.2335 20.3151 99.7049 20.5625 100.34 20.5625ZM112.915 18.3828H107.407C107.443 18.8151 107.555 19.1979 107.743 19.5312C107.93 19.8646 108.183 20.125 108.501 20.3125C108.824 20.5 109.199 20.5938 109.626 20.5938C110.501 20.5938 111.204 20.25 111.735 19.5625L112.774 20.5703C112.467 21.0234 112.04 21.401 111.493 21.7031C110.946 22.0052 110.284 22.1562 109.508 22.1562C108.686 22.1562 107.967 21.9792 107.352 21.625C106.738 21.2656 106.266 20.776 105.938 20.1562C105.61 19.5365 105.446 18.8411 105.446 18.0703V17.75C105.446 16.8802 105.613 16.1172 105.946 15.4609C106.279 14.7995 106.738 14.2891 107.321 13.9297C107.904 13.5703 108.561 13.3906 109.29 13.3906C110.087 13.3906 110.756 13.5651 111.298 13.9141C111.839 14.263 112.243 14.7526 112.508 15.3828C112.779 16.0078 112.915 16.7344 112.915 17.5625V18.3828ZM110.993 16.8281C110.967 16.2812 110.818 15.8333 110.548 15.4844C110.277 15.1302 109.855 14.9531 109.282 14.9531C108.771 14.9531 108.36 15.1302 108.048 15.4844C107.735 15.8385 107.534 16.3359 107.446 16.9766H110.993V16.8281ZM113.848 17.6953C113.848 16.8724 114.005 16.1354 114.317 15.4844C114.635 14.8333 115.091 14.3229 115.684 13.9531C116.278 13.5781 116.976 13.3906 117.778 13.3906C118.591 13.3906 119.294 13.5781 119.887 13.9531C120.486 14.3229 120.942 14.8333 121.255 15.4844C121.572 16.1354 121.731 16.8724 121.731 17.6953V17.8594C121.731 18.6823 121.572 19.4193 121.255 20.0703C120.942 20.7214 120.489 21.2318 119.895 21.6016C119.302 21.9714 118.601 22.1562 117.794 22.1562C116.986 22.1562 116.283 21.9714 115.684 21.6016C115.091 21.2318 114.635 20.7214 114.317 20.0703C114.005 19.4193 113.848 18.6823 113.848 17.8594V17.6953ZM115.794 17.8594C115.794 18.6615 115.96 19.3177 116.294 19.8281C116.627 20.3385 117.127 20.5938 117.794 20.5938C118.236 20.5938 118.606 20.474 118.903 20.2344C119.205 19.9896 119.427 19.6615 119.567 19.25C119.713 18.8385 119.786 18.375 119.786 17.8594V17.6953C119.786 17.1849 119.713 16.724 119.567 16.3125C119.427 15.8958 119.205 15.5651 118.903 15.3203C118.601 15.0755 118.226 14.9531 117.778 14.9531C117.335 14.9531 116.966 15.0755 116.669 15.3203C116.372 15.5651 116.151 15.8958 116.005 16.3125C115.864 16.724 115.794 17.1849 115.794 17.6953V17.8594Z" fill="white"/>
<path fill-rule="evenodd" clip-rule="evenodd" d="M14.4999 1.99731C7.59641 1.99731 1.99991 7.59409 1.99991 14.4968C1.99991 21.4016 7.59641 26.9978 14.4999 26.9978C21.4034 26.9978 26.9999 21.4016 26.9999 14.4968C26.9999 7.59409 21.4034 1.99731 14.4999 1.99731ZM18.8202 15.1597L12.5702 19.0666C12.4438 19.1457 12.2999 19.1849 12.1562 19.1849C12.026 19.1849 11.8954 19.1521 11.7774 19.0866C11.5291 18.9495 11.3749 18.6871 11.3749 18.4043V10.5914C11.3749 10.3075 11.5291 10.0457 11.7774 9.90807C12.0257 9.76936 12.3294 9.77742 12.5702 9.92904L18.8202 13.8344C19.0485 13.978 19.1875 14.2285 19.1875 14.4968C19.1875 14.7667 19.0485 15.0177 18.8202 15.1597Z" fill="white"/>
</g>
<defs>
<clipPath id="clip0_1_18">
<rect width="122" height="28" fill="white"/>
</clipPath>
</defs>
</svg>
